HIERARCHY
ROOT Hips
{
	OFFSET -0.001795 -0.223333 0.028219
	CHANNELS 6 Xposition Yposition Zposition Zrotation Yrotation Xrotation 
	JOINT LeftUpLeg
	{
		OFFSET 0.069520 -0.091406 -0.006815
		CHANNELS 3 Zrotation Yrotation Xrotation
		JOINT LeftLeg
		{
			OFFSET 0.034277 -0.375199 -0.004496
			CHANNELS 3 Zrotation Yrotation Xrotation
			JOINT LeftFoot
			{
				OFFSET -0.013596 -0.397961 -0.043693
				CHANNELS 3 Zrotation Yrotation Xrotation
				JOINT LeftToe
				{
					OFFSET 0.026358 -0.055791 0.119288
					CHANNELS 3 Zrotation Yrotation Xrotation
					End Site
					{
						OFFSET 0.000000 0.000000 0.000000
					}
				}
			}
		}
	}
	JOINT RightUpLeg
	{
		OFFSET -0.067670 -0.090522 -0.004320
		CHANNELS 3 Zrotation Yrotation Xrotation
		JOINT RightLeg
		{
			OFFSET -0.038290 -0.382569 -0.008850
			CHANNELS 3 Zrotation Yrotation Xrotation
			JOINT RightFoot
			{
				OFFSET 0.015774 -0.398415 -0.042312
				CHANNELS 3 Zrotation Yrotation Xrotation
				JOINT RightToe
				{
					OFFSET -0.025372 -0.048144 0.123348
					CHANNELS 3 Zrotation Yrotation Xrotation
					End Site
					{
						OFFSET 0.000000 0.000000 0.000000
					}
				}
			}
		}
	}
	JOINT Spine
	{
		OFFSET -0.002533 0.108963 -0.026696
		CHANNELS 3 Zrotation Yrotation Xrotation
		JOINT Spine1
		{
			OFFSET 0.005487 0.135180 0.001092
			CHANNELS 3 Zrotation Yrotation Xrotation
			JOINT Spine2
			{
				OFFSET 0.001457 0.052922 0.025425
				CHANNELS 3 Zrotation Yrotation Xrotation
				JOINT Neck
				{
					OFFSET -0.002778 0.213870 -0.042857
					CHANNELS 3 Zrotation Yrotation Xrotation
					JOINT Head
					{
						OFFSET 0.005152 0.064970 0.051349
						CHANNELS 3 Zrotation Yrotation Xrotation
						End Site
						{
							OFFSET 0.000000 0.000000 0.000000
						}
					}
				}
				JOINT LeftShoulder
				{
					OFFSET 0.078845 0.121749 -0.034090
					CHANNELS 3 Zrotation Yrotation Xrotation
					JOINT LeftArm
					{
						OFFSET 0.090977 0.030469 -0.008868
						CHANNELS 3 Zrotation Yrotation Xrotation
						JOINT LeftForeArm
						{
							OFFSET 0.259612 -0.012772 -0.027456
							CHANNELS 3 Zrotation Yrotation Xrotation
							JOINT LeftHand
							{
								OFFSET 0.249234 0.008986 -0.001171
								CHANNELS 3 Zrotation Yrotation Xrotation
								End Site
								{
									OFFSET 0.000000 0.000000 0.000000
								}
							}
						}
					}
				}
				JOINT RightShoulder
				{
					OFFSET -0.081759 0.118833 -0.038615
					CHANNELS 3 Zrotation Yrotation Xrotation
					JOINT RightArm
					{
						OFFSET -0.096012 0.032551 -0.009143
						CHANNELS 3 Zrotation Yrotation Xrotation
						JOINT RightForeArm
						{
							OFFSET -0.253742 -0.013329 -0.021401
							CHANNELS 3 Zrotation Yrotation Xrotation
							JOINT RightHand
							{
								OFFSET -0.255298 0.007772 -0.005559
								CHANNELS 3 Zrotation Yrotation Xrotation
								End Site
								{
									OFFSET 0.000000 0.000000 0.000000
								}
							}
						}
					}
				}
			}
		}
	}
}
MOTION
Frames: 5
Frame Time: 0.050000
0.089741 0.926628 -0.171019 -1.160543 73.358198 3.828864 6.461341 -1.343635 -2.949012 -5.041372 -1.337623 -5.707918 -10.753985 -15.891310 4.827484 0.000000 0.000000 0.000000 -1.681980 -0.448122 -4.266410 0.660217 -0.765518 1.940071 -0.902911 -4.665200 1.286946 0.000000 0.000000 0.000000 5.359192 -0.277921 -6.094977 -1.041776 -0.643830 0.058480 -5.388051 3.070768 4.165966 5.835788 2.895073 -19.044796 0.000000 0.000000 0.000000 -9.353629 -17.975191 -1.480248 -3.129824 -36.402308 -2.842879 39.588842 -30.490085 -15.001988 0.000000 0.000000 0.000000 14.457684 -10.279103 0.192551 39.328119 23.203399 2.548559 -119.754682 70.338765 -69.005195 0.000000 0.000000 0.000000 
0.088327 0.926558 -0.170786 -0.914076 74.105290 4.001188 6.632012 -1.392907 -3.086470 -5.339191 -1.430662 -5.730691 -11.211071 -16.241751 5.204280 0.000000 0.000000 0.000000 -1.412860 -0.411648 -4.261377 0.242360 -0.676673 2.073062 -1.182678 -5.463651 1.204619 0.000000 0.000000 0.000000 5.039997 -0.275539 -6.137482 -0.840565 -0.787003 0.185173 -5.691701 2.664777 4.228251 6.293804 2.569799 -18.663543 0.000000 0.000000 0.000000 -9.168994 -17.858197 -1.449772 -3.731888 -38.579983 -3.023075 41.080639 -32.193967 -16.392463 0.000000 0.000000 0.000000 14.512712 -10.005423 0.420982 40.260902 22.859386 2.608724 -122.275722 69.855940 -70.782292 0.000000 0.000000 0.000000 
0.086277 0.926761 -0.171140 -0.427256 74.674524 4.449016 6.504211 -1.375225 -3.155183 -5.281281 -1.484755 -5.992157 -11.714552 -16.489928 5.688227 0.000000 0.000000 0.000000 -1.591063 -0.468107 -4.306238 0.425535 -0.744006 2.074499 -1.363307 -5.866558 1.299069 0.000000 0.000000 0.000000 4.850069 -0.267807 -5.930004 -0.646177 -0.861874 0.101123 -6.133860 2.792821 4.069892 6.787132 2.208114 -18.156099 0.000000 0.000000 0.000000 -8.739521 -18.638577 -1.101295 -5.941843 -40.663185 -2.694762 43.269588 -35.772900 -19.334871 0.000000 0.000000 0.000000 15.142652 -10.417382 0.506960 41.580832 23.210959 2.903681 -127.604325 69.600062 -75.302237 0.000000 0.000000 0.000000 
0.083543 0.926955 -0.172023 -0.596742 74.873425 4.389772 6.544105 -1.377946 -3.667359 -5.254159 -1.456304 -5.689022 -11.834831 -16.594362 5.812632 0.000000 0.000000 0.000000 -1.640658 -0.476254 -4.944402 0.602632 -0.871364 2.719966 -1.425823 -5.917327 1.358556 0.000000 0.000000 0.000000 4.976063 -0.272752 -5.899704 -0.808028 -1.011846 0.744974 -6.265678 2.863327 3.884523 7.078218 1.875277 -17.579694 0.000000 0.000000 0.000000 -8.776345 -18.578526 -1.135820 -8.920368 -42.788683 -1.965460 46.308354 -40.722142 -23.569900 0.000000 0.000000 0.000000 14.773334 -10.033572 0.625834 43.867085 23.650755 3.749222 -133.091459 68.727193 -79.652035 0.000000 0.000000 0.000000 
0.080566 0.926724 -0.173159 -0.430163 75.174947 4.589900 6.293725 -1.322318 -4.160213 -4.908254 -1.365065 -5.344417 -11.952079 -16.977902 5.779190 0.000000 0.000000 0.000000 -1.676044 -0.496901 -5.327279 0.586643 -0.911784 3.024776 -1.509099 -6.155621 1.287174 0.000000 0.000000 0.000000 5.132064 -0.263678 -5.450240 -0.821224 -1.086209 0.943239 -6.666587 3.133116 3.842022 7.479264 1.762702 -17.851861 0.000000 0.000000 0.000000 -9.821070 -19.343043 -1.553898 -13.028642 -43.181400 -0.367795 50.831689 -47.202793 -30.048441 0.000000 0.000000 0.000000 15.245862 -9.658081 1.162859 45.458149 24.318791 4.344460 -138.319231 67.487390 -83.542422 0.000000 0.000000 0.000000 
